<svg width="717" height="450" viewBox="0 0 717 450" fill="none" xmlns="http://www.w3.org/2000/svg">
<path d="M187.388 274.249C262.722 274.249 323.793 212.856 323.793 137.124C323.793 61.3927 262.722 0 187.388 0C112.053 0 50.9819 61.3927 50.9819 137.124C50.9819 212.856 112.053 274.249 187.388 274.249Z" fill="#BAB998"/>
<path d="M0 32.9243C0 82.8156 31.1351 123.187 69.6122 123.187Z" fill="white"/>
<path d="M69.6123 123.187C69.6123 72.7351 104.357 31.9101 147.295 31.9101Z" fill="#FBBF24"/>
<path d="M25.2217 37.447C25.2217 84.8385 45.076 123.187 69.612 123.187Z" fill="#FBBF24"/>
<path d="M69.6123 123.187C69.6123 58.7207 109.772 6.55537 159.402 6.55537Z" fill="#3D3D3D"/>
<path d="M54.9678 123.823C54.9678 123.823 64.8399 123.518 67.8151 121.388C70.7904 119.258 83.001 116.715 83.7391 120.131C84.4772 123.547 98.5751 137.119 87.4295 137.209C76.2839 137.3 61.532 135.464 58.5625 133.646C55.593 131.827 54.9678 123.823 54.9678 123.823Z" fill="#A8A8A8"/>
<path opacity="0.2" d="M87.6284 136.02C76.4828 136.111 61.731 134.275 58.7614 132.457C56.5 131.072 55.5989 126.103 55.2973 123.811C55.0885 123.82 54.9678 123.823 54.9678 123.823C54.9678 123.823 55.5931 131.827 58.5626 133.646C61.5321 135.464 76.2839 137.3 87.4295 137.209C90.6468 137.183 91.7581 136.033 91.6971 134.328C91.2501 135.358 90.023 136.001 87.6284 136.02Z" fill="black"/>
<path d="M127.19 289.661C193.329 289.661 246.945 282.328 246.945 273.283C246.945 264.238 193.329 256.906 127.19 256.906C61.0508 256.906 7.43457 264.238 7.43457 273.283C7.43457 282.328 61.0508 289.661 127.19 289.661Z" fill="#FFE24D"/>
<path opacity="0.1" d="M127.19 287.033C182.718 287.033 227.733 280.877 227.733 273.283C227.733 265.689 182.718 259.533 127.19 259.533C71.6612 259.533 26.6465 265.689 26.6465 273.283C26.6465 280.877 71.6612 287.033 127.19 287.033Z" fill="#FBBF24"/>
<path d="M535.766 450C635.859 450 717 438.903 717 425.215C717 411.526 635.859 400.429 535.766 400.429C435.673 400.429 354.532 411.526 354.532 425.215C354.532 438.903 435.673 450 535.766 450Z" fill="#FBBF24"/>
<path d="M198.915 430.447C259.041 430.447 307.783 423.781 307.783 415.558C307.783 407.335 259.041 400.669 198.915 400.669C138.788 400.669 90.0464 407.335 90.0464 415.558C90.0464 423.781 138.788 430.447 198.915 430.447Z" fill="#FBBF24"/>
<path d="M296.256 403.004C353.892 417.811 464.682 383.691 476.849 345.064" stroke="white" stroke-width="2" stroke-miterlimit="10"/>
<path d="M198.274 166.738C198.274 166.738 281.527 143.562 286.65 218.24C291.773 292.918 218.127 314.163 275.763 328.97" stroke="white" stroke-width="2" stroke-miterlimit="10"/>
<path d="M117.841 345.891C117.841 345.891 142.863 338.925 144.403 361.37C145.943 383.815 123.808 390.2 141.131 394.65" stroke="white" stroke-width="2" stroke-miterlimit="10"/>
<path d="M498.684 362.601L493.639 394.98C493.639 394.98 468.803 408.243 486.266 408.633C503.729 409.023 585.998 408.633 585.998 408.633C585.998 408.633 601.909 408.633 576.685 394.59L571.64 360.65L498.684 362.601Z" fill="#32515E"/>
<path opacity="0.1" d="M482.753 408.282C486.719 404.735 493.639 401.038 493.639 401.038L498.684 368.659L571.64 368.728L576.685 400.648C582.567 403.923 586.211 406.434 588.342 408.359C591.582 407.616 595.122 404.855 576.685 394.59L571.64 360.65L498.684 362.601L493.639 394.98C493.639 394.98 472.77 406.126 482.753 408.282Z" fill="black"/>
<path d="M687.562 136.924H381.986C375.604 136.924 370.43 142.125 370.43 148.541V355.47C370.43 361.886 375.604 367.087 381.986 367.087H687.562C693.944 367.087 699.118 361.886 699.118 355.47V148.541C699.118 142.125 693.944 136.924 687.562 136.924Z" fill="#487183"/>
<path d="M688.058 149.212H381.489V321.64H688.058V149.212Z" fill="#32515E"/>
<path d="M534.774 145.701C535.845 145.701 536.714 144.828 536.714 143.751C536.714 142.674 535.845 141.8 534.774 141.8C533.702 141.8 532.833 142.674 532.833 143.751C532.833 144.828 533.702 145.701 534.774 145.701Z" fill="#F2F2F2"/>
<path d="M699.118 335.293V355.47C699.118 356.995 698.819 358.506 698.239 359.916C697.658 361.325 696.807 362.606 695.734 363.685C694.661 364.764 693.386 365.619 691.984 366.203C690.582 366.787 689.079 367.087 687.562 367.087H381.986C380.469 367.087 378.966 366.787 377.564 366.203C376.161 365.619 374.887 364.764 373.814 363.685C372.741 362.606 371.89 361.325 371.309 359.916C370.728 358.506 370.429 356.995 370.43 355.47V335.293H699.118Z" fill="white"/>
<path d="M620.536 429.699V433.6H411.758V430.479L412.046 429.699L417.191 415.655H616.267L620.536 429.699Z" fill="#487183"/>
<path d="M700.88 425.88C700.5 427.515 699.064 429.239 695.82 430.87C684.178 436.721 660.506 429.309 660.506 429.309C660.506 429.309 642.267 426.188 642.267 417.996C642.779 417.643 643.313 417.324 643.866 417.04C648.76 414.437 664.989 408.014 693.765 417.312C695.884 417.981 697.778 419.229 699.234 420.916C700.4 422.288 701.315 424.028 700.88 425.88Z" fill="#2F2E41"/>
<path opacity="0.1" d="M700.88 425.88C686.63 431.369 673.929 431.778 660.894 422.677C654.32 418.09 648.348 416.954 643.866 417.04C648.76 414.437 664.989 408.014 693.764 417.312C695.884 417.981 697.778 419.228 699.234 420.915C700.4 422.288 701.314 424.028 700.88 425.88Z" fill="#487183"/>
<path d="M683.014 422.677C685.8 422.677 688.058 421.979 688.058 421.117C688.058 420.255 685.8 419.556 683.014 419.556C680.227 419.556 677.969 420.255 677.969 421.117C677.969 421.979 680.227 422.677 683.014 422.677Z" fill="#F2F2F2"/>
<path d="M534.774 358.7C538.846 358.7 542.147 355.381 542.147 351.288C542.147 347.194 538.846 343.876 534.774 343.876C530.702 343.876 527.401 347.194 527.401 351.288C527.401 355.381 530.702 358.7 534.774 358.7Z" fill="black"/>
<path opacity="0.1" d="M620.536 429.699V433.6H411.758V430.479L412.046 429.699H620.536Z" fill="white"/>
<path d="M202.757 102.361H69.5537V258.154H202.757V102.361Z" fill="#2F2E41"/>
<path d="M216.206 86.9099H56.105V142.275H216.206V86.9099Z" fill="#32515E"/>
<path d="M216.206 152.575H56.105V207.94H216.206V152.575Z" fill="#32515E"/>
<path d="M216.206 218.24H56.105V273.605H216.206V218.24Z" fill="#32515E"/>
<path opacity="0.4" d="M184.185 96.5665H173.939V106.867H184.185V96.5665Z" fill="#FBBF24"/>
<path opacity="0.8" d="M198.915 96.5665H188.668V106.867H198.915V96.5665Z" fill="#FBBF24"/>
<path d="M213.644 96.5665H203.397V106.867H213.644V96.5665Z" fill="#FBBF24"/>
<path opacity="0.4" d="M184.185 161.588H173.939V171.888H184.185V161.588Z" fill="#FBBF24"/>
<path opacity="0.8" d="M198.915 161.588H188.668V171.888H198.915V161.588Z" fill="#FBBF24"/>
<path d="M213.644 161.588H203.397V171.888H213.644V161.588Z" fill="#FBBF24"/>
<path opacity="0.4" d="M184.185 226.609H173.939V236.91H184.185V226.609Z" fill="#FBBF24"/>
<path opacity="0.8" d="M198.915 226.609H188.668V236.91H198.915V226.609Z" fill="#FBBF24"/>
<path d="M213.644 226.609H203.397V236.91H213.644V226.609Z" fill="#FBBF24"/>
<path d="M202.757 397.21C230.698 397.21 253.349 374.44 253.349 346.352C253.349 318.264 230.698 295.494 202.757 295.494C174.816 295.494 152.166 318.264 152.166 346.352C152.166 374.44 174.816 397.21 202.757 397.21Z" fill="#55BFC6"/>
<path d="M195.072 386.266H179.703V413.949H195.072V386.266Z" fill="#55BFC6"/>
<path d="M225.812 386.266H210.442V413.949H225.812V386.266Z" fill="#55BFC6"/>
<path d="M192.511 419.099C199.584 419.099 205.319 416.937 205.319 414.27C205.319 411.604 199.584 409.442 192.511 409.442C185.437 409.442 179.703 411.604 179.703 414.27C179.703 416.937 185.437 419.099 192.511 419.099Z" fill="#55BFC6"/>
<path d="M223.25 418.455C230.324 418.455 236.058 416.293 236.058 413.627C236.058 410.96 230.324 408.798 223.25 408.798C216.176 408.798 210.442 410.96 210.442 413.627C210.442 416.293 216.176 418.455 223.25 418.455Z" fill="#55BFC6"/>
<path d="M204.038 350.858C213.587 350.858 221.329 343.076 221.329 333.476C221.329 323.877 213.587 316.094 204.038 316.094C194.488 316.094 186.747 323.877 186.747 333.476C186.747 343.076 194.488 350.858 204.038 350.858Z" fill="white"/>
<path d="M204.038 339.27C207.221 339.27 209.802 336.676 209.802 333.476C209.802 330.276 207.221 327.682 204.038 327.682C200.855 327.682 198.274 330.276 198.274 333.476C198.274 336.676 200.855 339.27 204.038 339.27Z" fill="#3F3D56"/>
<path d="M153.682 299.055C149.596 280.664 162.655 262.08 182.848 257.548C203.041 253.015 222.723 264.249 226.808 282.641C230.893 301.032 217.51 307.815 197.317 312.348C177.124 316.88 157.767 317.446 153.682 299.055Z" fill="#FBBF24"/>
<path d="M250.207 336.208C263.051 330.682 272.064 322.917 270.338 318.863C268.612 314.81 256.802 316.004 243.958 321.53C231.114 327.056 222.102 334.822 223.827 338.875C225.553 342.928 237.364 341.734 250.207 336.208Z" fill="#4DBEC6"/>
<path d="M155.428 370.329C168.271 364.802 177.284 357.037 175.558 352.984C173.833 348.93 162.022 350.124 149.178 355.65C136.335 361.177 127.322 368.942 129.048 372.995C130.773 377.049 142.584 375.855 155.428 370.329Z" fill="#55BFC6"/>
<path d="M232.216 361.159C232.216 366.136 219.466 375.966 205.319 375.966C191.172 375.966 177.782 366.78 177.782 361.803C177.782 356.825 191.172 357.94 205.319 357.94C219.466 357.94 232.216 356.181 232.216 361.159Z" fill="white"/>
</svg>
